<?xml version="1.0" encoding="UTF-8" standalone="no"?>
<svg
   width="150.47391"
   height="90"
   viewBox="0 0 150.47391 90"
   version="1.1"
   id="svg2"
   xmlns="http://www.w3.org/2000/svg"
   xmlns:svg="http://www.w3.org/2000/svg"
   xmlns:rdf="http://www.w3.org/1999/02/22-rdf-syntax-ns#"
   xmlns:cc="http://creativecommons.org/ns#"
   xmlns:dc="http://purl.org/dc/elements/1.1/">
  <defs
     id="defs2" />
  <title
     id="title1">svelte-logo</title>
  <metadata
     id="metadata2">
    <rdf:RDF>
      <cc:Work
         rdf:about="">
        <dc:title>svelte-logo</dc:title>
      </cc:Work>
    </rdf:RDF>
  </metadata>
  <g
     id="g11"
     transform="matrix(1.2210063,0,0,1.2210063,-30.74933,-24.212631)">
    <path
       id="path3"
       style="baseline-shift:baseline;display:inline;overflow:visible;opacity:1;vector-effect:none;fill:#155dfc;fill-opacity:1;enable-background:accumulate;stop-color:#000000;stop-opacity:1"
       d="m 64.693359,21.857422 c -8.224426,-0.181879 -17.803361,0.506459 -27.404297,3.171875 -3.477536,0.965435 -6.283193,2.257903 -8.476562,4.251953 -2.193369,1.99405 -3.589797,4.934031 -3.626953,7.755859 -0.07431,5.643657 3.480541,9.68351 7.511719,13.244141 4.031177,3.560631 8.981134,6.88922 14.232422,8.888672 12.846656,4.891422 10.285738,1.696083 19.785244,6.242427 2.903484,1.389571 5.461464,3.374579 7.496006,5.171635 3.014928,2.663004 4.136932,5.3043 4.132812,5.617188 -8.2e-4,0.06111 0.02359,0.07899 0.02344,0.103516 -0.0034,0.03849 -0.06941,0.103392 -0.378907,0.384765 -0.521257,0.473889 -1.915144,1.319163 -4.423828,2.015625 -22.287278,6.187403 -45.810547,0.121094 -45.810547,0.121094 l -2.570312,9.664062 c 0,0 25.452194,6.959338 51.054687,-0.148437 3.477538,-0.965436 6.285146,-2.259856 8.478516,-4.253906 2.193369,-1.99405 3.589797,-4.932078 3.626953,-7.753907 0.07431,-5.643656 -3.480541,-9.683509 -7.511719,-13.24414 C 77.596207,60.231727 73.877404,57.293536 69.627584,55.629958 58.706494,51.354934 55.101192,51.970765 49.918312,49.545129 45.99837,47.71056 42.088646,45.233801 39.316406,42.785156 c -3.014927,-2.663004 -4.136932,-5.304299 -4.132812,-5.617187 8.2e-4,-0.06111 -0.02359,-0.07899 -0.02344,-0.103516 0.0034,-0.03849 0.06941,-0.103392 0.378906,-0.384765 0.521257,-0.473889 1.917098,-1.319164 4.425782,-2.015626 22.287278,-6.187402 45.808594,-0.121093 45.808594,-0.121093 l 2.570312,-9.664063 c 0,0 -9.943014,-2.718353 -23.650391,-3.021484 z" />
    <g
       id="g10"
       transform="translate(-0.0146844,-2.3502796)">
      <circle
         style="fill:#8ec5ff;fill-opacity:1;stroke:none;stroke-width:27.3003;stroke-dasharray:none"
         id="path4-2"
         cx="140.9359"
         cy="29.680342"
         r="7.5" />
      <circle
         style="fill:#8ec5ff;fill-opacity:1;stroke:none;stroke-width:27.3003;stroke-dasharray:none"
         id="path4-2-5"
         cx="140.9359"
         cy="88.390038"
         r="7.5" />
      <circle
         style="fill:#8ec5ff;fill-opacity:1;stroke:none;stroke-width:27.3003;stroke-dasharray:none"
         id="path4-5"
         cx="91.859581"
         cy="59.555225"
         r="7.5" />
      <path
         style="baseline-shift:baseline;display:inline;overflow:visible;opacity:1;vector-effect:none;fill:#8ec5ff;fill-opacity:1;enable-background:accumulate;stop-color:#000000;stop-opacity:1"
         d="m 205.93945,-26.761719 -2.63281,4.558594 c 0,0 -16.46614,28.5192118 -24.69922,42.779297 -6.74226,11.677918 -20.22656,35.033203 -20.22656,35.033203 l 5.26367,3.039062 c 0,0 13.48432,-23.35532 20.22656,-35.033203 7.35584,-12.740652 19.18383,-33.2245943 22.06836,-38.220703 L 228.00977,23.615234 248.23633,58.648437 253.5,55.609375 233.27344,20.576172 Z"
         id="path10"
         transform="matrix(0,-0.65807052,0.65807052,0,103.97108,195.31229)" />
    </g>
  </g>
</svg>
